<?xml version="1.0" encoding="utf-8"?>
<!-- Generator: Adobe Illustrator 23.1.0, SVG Export Plug-In . SVG Version: 6.00 Build 0)  -->
<svg version="1.1" xmlns="http://www.w3.org/2000/svg" xmlns:xlink="http://www.w3.org/1999/xlink" x="0px" y="0px"
	 viewBox="0 0 40 30" style="enable-background:new 0 0 40 30;" xml:space="preserve">
<style type="text/css">
	.st0{fill:#FFFFFF;}
	.st1{display:none;}
	.st2{display:inline;}
</style>
<g id="Calque_1">
	<g>
		<g>
			<path class="st0" d="M25.1,5.2v8.1c0-0.3,0.3-0.6,0.6-0.6h0.6V4.6C26.3,4.3,26,4,25.7,4h-4.4v1.2H25.1z"/>
			<path class="st0" d="M2.1,20.9h0.6V5.2h15.2V4H2.1C1.7,4,1.5,4.3,1.5,4.6v16.9h0C1.5,21.1,1.7,20.9,2.1,20.9"/>
			<path class="st0" d="M28.1,25.2H10.8c0,0.2,0.1,0.4,0.1,0.6c0,0.2,0,0.4-0.1,0.6h17.2c0-0.2-0.1-0.4-0.1-0.6
				C28,25.6,28,25.4,28.1,25.2"/>
			<path class="st0" d="M36.7,17.6h-0.4c-0.4,0-0.9-0.3-1-0.7l-1.1-2.8c-0.3-0.8-1.3-1.5-2.2-1.5h-5.7v0.6h-1.2l0,7.6H2.7v0.6H1.5
				v4.3c0,0.3,0.3,0.6,0.6,0.6h2.3c0-0.2-0.1-0.4-0.1-0.6c0-0.2,0-0.4,0.1-0.6H2.7v-3.1h23c0.3,0,0.6-0.3,0.6-0.6l0-7.6H32
				c0.4,0,0.9,0.3,1,0.7l1.1,2.8c0.3,0.8,1.3,1.5,2.2,1.5h0.4c0.3,0,0.6,0.3,0.6,0.6v5.2c0,0.3-0.3,0.6-0.6,0.6l-2.1,0
				c0,0.2,0.1,0.4,0.1,0.6c0,0.2,0,0.4-0.1,0.6l2.1,0c1,0,1.8-0.8,1.8-1.8v-5.2C38.5,18.4,37.7,17.6,36.7,17.6"/>
			<path class="st0" d="M2.7,20.9H2.1c-0.3,0-0.6,0.3-0.6,0.6h1.2V20.9z"/>
			<path class="st0" d="M25.1,13.2L25.1,13.2h1.2v-0.6h-0.6C25.4,12.6,25.1,12.9,25.1,13.2"/>
			<path class="st0" d="M7.6,27.9c-1.2,0-2.1-0.9-2.1-2.1c0-1.2,0.9-2.1,2.1-2.1c1.2,0,2.1,0.9,2.1,2.1C9.7,27,8.8,27.9,7.6,27.9
				 M10.3,25.2h0.5c-0.3-1.5-1.6-2.7-3.2-2.7c-1.6,0-3,1.2-3.2,2.7h0.5v1.2H4.4c0.3,1.5,1.6,2.7,3.2,2.7s3-1.2,3.2-2.7h-0.5V25.2z"
				/>
			<path class="st0" d="M10.8,25.2h-0.5v1.2h0.5c0-0.2,0.1-0.4,0.1-0.6C10.9,25.6,10.9,25.4,10.8,25.2"/>
			<path class="st0" d="M4.9,25.2H4.4c0,0.2-0.1,0.4-0.1,0.6c0,0.2,0,0.4,0.1,0.6h0.5V25.2z"/>
			<path class="st0" d="M31.3,27.9c-1.2,0-2.1-0.9-2.1-2.1c0-1.2,0.9-2.1,2.1-2.1c1.2,0,2.1,0.9,2.1,2.1
				C33.4,27,32.5,27.9,31.3,27.9 M34,25.2h0.5c-0.3-1.5-1.6-2.7-3.2-2.7c-1.6,0-3,1.2-3.2,2.7h0.5v1.2h-0.5c0.3,1.5,1.6,2.7,3.2,2.7
				c1.6,0,3-1.2,3.2-2.7l-0.5,0L34,25.2z"/>
			<path class="st0" d="M28.6,25.2h-0.5c0,0.2-0.1,0.4-0.1,0.6c0,0.2,0,0.4,0.1,0.6h0.5V25.2z"/>
			<path class="st0" d="M34.6,25.2H34l0,1.2h0.5c0-0.2,0.1-0.4,0.1-0.6C34.6,25.6,34.6,25.4,34.6,25.2"/>
			<path class="st0" d="M28.4,16.2h2.7l1.4,2.3v0.5h-4.1V16.2z M27.8,20.1h5.3c0.3,0,0.6-0.3,0.6-0.6v-1.2l-1.2,0v0h1.2
				c0-0.1,0-0.2-0.1-0.3L32,15.3c-0.1-0.2-0.3-0.3-0.5-0.3h-3.6c-0.3,0-0.6,0.3-0.6,0.6v3.9C27.2,19.9,27.5,20.1,27.8,20.1"/>
			<path class="st0" d="M33.7,18.3"/>
		</g>
		<polygon class="st0" points="32.5,18.3 32.5,18.3 33.7,18.3 		"/>
	</g>
</g>
<g id="Calque_2" class="st1">
	<g class="st2">
		<path class="st0" d="M31.5,25c2-0.2,3.5-1.9,3.5-4V8c0-2.2-1.8-4-4-4h-2.4v1.2H31c1.6,0,2.8,1.3,2.8,2.8v0.8H5.6V8
			c0-1.6,1.3-2.8,2.8-2.8h15.7V4H8.4c-2.2,0-4,1.8-4,4v13c0,2.2,1.8,4,4,4h12l0-1.2h-12c-1.6,0-2.8-1.3-2.8-2.8v-7.9h28.3V21
			c0,1.4-1,2.6-2.4,2.8L31.5,25z M33.9,12H5.6v-2h28.3V12z"/>
		<path class="st0" d="M20.1,23.4"/>
		<g>
			<path class="st0" d="M25.4,25.8v0.6c0,0.3,0.2,0.5,0.5,0.5c0.3,0,0.5-0.2,0.5-0.5v-0.6c0.6-0.2,1-0.8,1-1.4
				c0-0.8-0.7-1.5-1.5-1.5c-0.8,0-1.5,0.7-1.5,1.5C24.4,25,24.8,25.6,25.4,25.8z M25.9,23.8c0.3,0,0.6,0.3,0.6,0.6
				c0,0.3-0.3,0.6-0.6,0.6c-0.3,0-0.6-0.3-0.6-0.6C25.3,24.1,25.6,23.8,25.9,23.8z"/>
			<path class="st0" d="M30.9,20.1h-1.4v-2.2c0-1.9-1.6-3.4-3.6-3.4c-2,0-3.6,1.5-3.6,3.4v2.2h-1.4c-0.3,0-0.6,0.3-0.6,0.6l0,6.3
				c0,1.2,1,2.2,2.2,2.2h6.7c1.2,0,2.2-1,2.2-2.2v-3l0-1.2v-2.1C31.4,20.4,31.2,20.1,30.9,20.1z M23.5,17.9c0,0,0-2.4,2.4-2.4
				c2.3,0,2.4,2.4,2.4,2.4v2.2h-4.8V17.9z M30.3,27c0,0.6-0.5,1-1,1h-6.7c-0.6,0-1-0.5-1-1v-5.7h8.8V27z"/>
		</g>
		<path class="st0" d="M20.1,22.2"/>
	</g>
</g>
<g id="Calque_4" class="st1">
	<g class="st2">
		<g>
			<path class="st0" d="M29.1,18c0-5-4.1-9.1-9.1-9.1c-5,0-9.1,4.1-9.1,9.1c0,4.5,3.3,8.3,7.6,9v-1.3c-3.6-0.7-6.3-3.9-6.3-7.7
				c0-4.3,3.5-7.8,7.8-7.8s7.8,3.5,7.8,7.8c0,3.8-2.7,7-6.3,7.7V27C25.8,26.3,29.1,22.5,29.1,18"/>
		</g>
		<path class="st0" d="M18.5,21.1h-1.2v-4.2l1.2-0.4V21.1z M18.5,16.1l-2.4,0.8l-0.3-1.1l2.3-0.7h0.4V16.1z"/>
		<g>
			<path class="st0" d="M22.7,18.5c0-0.5-0.3-0.9-0.9-0.9c-0.2,0-0.3,0-0.5,0.1v-1c0.2-0.1,0.5-0.2,0.9-0.2c1.1,0,1.7,0.7,1.7,1.8
				v2.8h-1.2V18.5z M19.8,14.2H21v6.9h-1.2V14.2z"/>
		</g>
		<rect x="16.8" y="6.1" class="st0" width="6.3" height="1.3"/>
		<rect x="27.6" y="7.6" transform="matrix(0.6649 -0.7469 0.7469 0.6649 2.6787 24.1485)" class="st0" width="1.3" height="3"/>
		<rect x="19.4" y="7" class="st0" width="1.3" height="2.4"/>
		<rect x="25.7" y="9.7" transform="matrix(0.6804 -0.7328 0.7328 0.6804 1.0931 23.1253)" class="st0" width="2.7" height="1.3"/>
	</g>
</g>
<g id="Calque_5" class="st1">
	<g class="st2">
		<path class="st0" d="M28.9,16.6c0-4.5-3.3-8.2-7.5-8.9V9c3.6,0.7,6.3,3.8,6.3,7.6c0,3.5-2.3,6.4-5.5,7.4l0.8-1.1l-0.8-0.6
			l-1.9,2.7l2.7,1.9l0.6-0.8l-1-0.7C26.2,24.1,28.9,20.7,28.9,16.6z"/>
		<path class="st0" d="M12.2,16.6c0-3.5,2.3-6.5,5.6-7.4l-0.7,1l0.8,0.6l1.9-2.7l-2.7-1.9l-0.6,0.8l1.2,0.9c-3.9,1-6.8,4.5-6.8,8.7
			c0,4.5,3.3,8.2,7.5,8.9v-1.3C14.9,23.5,12.2,20.4,12.2,16.6z"/>
		<path class="st0" d="M17.6,13.7v1.7c0,0.3,0.3,0.6,0.6,0.6s0.6-0.3,0.6-0.6v-1.7c0-0.3-0.3-0.6-0.6-0.6S17.6,13.4,17.6,13.7z"/>
		<path class="st0" d="M21.5,16c0.3,0,0.6-0.3,0.6-0.6v-1.7c0-0.3-0.3-0.6-0.6-0.6c-0.3,0-0.6,0.3-0.6,0.6v1.7
			C20.9,15.8,21.2,16,21.5,16z"/>
		<path class="st0" d="M24.9,16.3c0-0.3-0.3-0.6-0.6-0.6s-0.6,0.3-0.6,0.6c0,2.2-1.7,4.1-3.8,4.1s-3.8-1.8-3.8-4.1
			c0-0.3-0.3-0.6-0.6-0.6s-0.6,0.3-0.6,0.6c0,2.9,2.3,5.3,5,5.3S24.9,19.2,24.9,16.3z"/>
	</g>
</g>
</svg>
